<?xml version="1.0" encoding="UTF-8"?>
<svg xmlns="http://www.w3.org/2000/svg" xmlns:xlink="http://www.w3.org/1999/xlink" width="1024pt" height="768pt" viewBox="0 0 1024 768" version="1.1">
<g id="surface1">
<path style="fill:none;stroke-width:2;stroke-linecap:butt;stroke-linejoin:miter;stroke:rgb(50%,50%,0%);stroke-opacity:1;stroke-miterlimit:10;" d="M 46.398438 384 C 46.398438 388.417969 42.820313 392 38.398438 392 C 33.980469 392 30.402344 388.417969 30.398438 384 C 30.398438 379.582031 33.980469 376 38.398438 376 C 42.816406 376 46.398438 379.582031 46.398438 384 Z M 46.398438 384 "/>
<path style="fill:none;stroke-width:2;stroke-linecap:butt;stroke-linejoin:miter;stroke:rgb(50%,50%,0%);stroke-opacity:1;stroke-miterlimit:10;" d="M 161.601563 230.398438 C 161.601563 234.816406 158.019531 238.398438 153.601563 238.398438 C 149.183594 238.398438 145.601563 234.820313 145.601563 230.402344 C 145.597656 225.984375 149.179688 222.402344 153.597656 222.398438 C 158.015625 222.398438 161.597656 225.980469 161.601563 230.398438 Z M 161.601563 230.398438 "/>
<path style="fill:none;stroke-width:2;stroke-linecap:butt;stroke-linejoin:miter;stroke:rgb(50%,50%,0%);stroke-opacity:1;stroke-miterlimit:10;" d="M 315.199219 691.199219 C 315.199219 695.617188 311.617188 699.199219 307.199219 699.199219 C 302.78125 699.199219 299.199219 695.617188 299.199219 691.199219 C 299.199219 686.78125 302.78125 683.199219 307.199219 683.199219 C 311.617188 683.199219 315.199219 686.78125 315.199219 691.199219 Z M 315.199219 691.199219 "/>
<path style="fill:none;stroke-width:2;stroke-linecap:butt;stroke-linejoin:miter;stroke:rgb(50%,50%,0%);stroke-opacity:1;stroke-miterlimit:10;" d="M 468.800781 230.398438 C 468.800781 234.816406 465.21875 238.398438 460.800781 238.398438 C 456.382813 238.398438 452.800781 234.820313 452.800781 230.402344 C 452.800781 225.984375 456.378906 222.402344 460.800781 222.398438 C 465.21875 222.398438 468.800781 225.980469 468.800781 230.398438 Z M 468.800781 230.398438 "/>
<path style="fill:none;stroke-width:2;stroke-linecap:butt;stroke-linejoin:miter;stroke:rgb(50%,50%,0%);stroke-opacity:1;stroke-miterlimit:10;" d="M 622.398438 614.398438 C 622.398438 618.816406 618.820313 622.398438 614.398438 622.398438 C 609.980469 622.398438 606.402344 618.820313 606.398438 614.402344 C 606.398438 609.984375 609.980469 606.402344 614.398438 606.398438 C 618.816406 606.398438 622.398438 609.980469 622.398438 614.398438 Z M 622.398438 614.398438 "/>
<path style="fill:none;stroke-width:2;stroke-linecap:butt;stroke-linejoin:miter;stroke:rgb(50%,50%,0%);stroke-opacity:1;stroke-miterlimit:10;" d="M 776 307.199219 C 776 311.617188 772.417969 315.199219 768 315.199219 C 763.582031 315.199219 760 311.617188 760 307.199219 C 760 302.78125 763.582031 299.199219 768 299.199219 C 772.417969 299.199219 776 302.78125 776 307.199219 Z M 776 307.199219 "/>
<path style="fill:none;stroke-width:2;stroke-linecap:butt;stroke-linejoin:miter;stroke:rgb(50%,50%,0%);stroke-opacity:1;stroke-miterlimit:10;" d="M 929.601563 384 C 929.601563 388.417969 926.019531 392 921.601563 392 C 917.183594 392 913.601563 388.417969 913.601563 384 C 913.597656 379.582031 917.179688 376 921.597656 376 C 926.015625 376 929.597656 379.582031 929.601563 384 Z M 929.601563 384 "/>
<path style="fill:none;stroke-width:2;stroke-linecap:butt;stroke-linejoin:miter;stroke:rgb(0%,100%,0%);stroke-opacity:1;stroke-miterlimit:10;" d="M 38.398438 384 C 153.601563 230.398438 307.199219 691.199219 460.800781 230.398438 C 614.398438 614.398438 768 307.199219 921.601563 384 "/>
<path style="fill:none;stroke-width:2;stroke-linecap:butt;stroke-linejoin:miter;stroke:rgb(100%,0%,0%);stroke-opacity:1;stroke-miterlimit:10;" d="M 38.398438 384 C 57.601563 358.398438 108.800781 179.199219 153.601563 230.398438 C 198.398438 281.601563 256 691.199219 307.199219 691.199219 C 358.398438 691.199219 409.601563 243.199219 460.800781 230.398438 C 512 217.601563 563.199219 601.601563 614.398438 614.398438 C 665.601563 627.199219 716.800781 345.601563 768 307.199219 C 819.199219 268.800781 896 371.199219 921.601563 384 "/>
</g>
</svg>
