<?xml version="1.0" encoding="UTF-8"?>
<svg xmlns="http://www.w3.org/2000/svg" xmlns:xlink="http://www.w3.org/1999/xlink" width="1000pt" height="1000pt" viewBox="0 0 1000 1000" version="1.1">
<g id="surface41">
<rect x="0" y="0" width="1000" height="1000" style="fill:rgb(100%,100%,100%);fill-opacity:1;stroke:none;"/>
<path style=" stroke:none;fill-rule:nonzero;fill:rgb(0%,0%,0%);fill-opacity:1;" d="M 484.375 31.25 L 500 0 L 515.625 31.25 Z M 484.375 31.25 "/>
<path style=" stroke:none;fill-rule:nonzero;fill:rgb(0%,0%,0%);fill-opacity:1;" d="M 468.75 62.5 L 484.375 31.25 L 500 62.5 Z M 468.75 62.5 "/>
<path style=" stroke:none;fill-rule:nonzero;fill:rgb(0%,0%,0%);fill-opacity:1;" d="M 500 62.5 L 515.625 31.25 L 531.25 62.5 Z M 500 62.5 "/>
<path style=" stroke:none;fill-rule:nonzero;fill:rgb(0%,0%,0%);fill-opacity:1;" d="M 453.125 93.75 L 468.75 62.5 L 484.375 93.75 Z M 453.125 93.75 "/>
<path style=" stroke:none;fill-rule:nonzero;fill:rgb(0%,0%,0%);fill-opacity:1;" d="M 437.5 125 L 453.125 93.75 L 468.75 125 Z M 437.5 125 "/>
<path style=" stroke:none;fill-rule:nonzero;fill:rgb(0%,0%,0%);fill-opacity:1;" d="M 468.75 125 L 484.375 93.75 L 500 125 Z M 468.75 125 "/>
<path style=" stroke:none;fill-rule:nonzero;fill:rgb(0%,0%,0%);fill-opacity:1;" d="M 515.625 93.75 L 531.25 62.5 L 546.875 93.75 Z M 515.625 93.75 "/>
<path style=" stroke:none;fill-rule:nonzero;fill:rgb(0%,0%,0%);fill-opacity:1;" d="M 500 125 L 515.625 93.75 L 531.25 125 Z M 500 125 "/>
<path style=" stroke:none;fill-rule:nonzero;fill:rgb(0%,0%,0%);fill-opacity:1;" d="M 531.25 125 L 546.875 93.75 L 562.5 125 Z M 531.25 125 "/>
<path style=" stroke:none;fill-rule:nonzero;fill:rgb(0%,0%,0%);fill-opacity:1;" d="M 421.875 156.25 L 437.5 125 L 453.125 156.25 Z M 421.875 156.25 "/>
<path style=" stroke:none;fill-rule:nonzero;fill:rgb(0%,0%,0%);fill-opacity:1;" d="M 406.25 187.5 L 421.875 156.25 L 437.5 187.5 Z M 406.25 187.5 "/>
<path style=" stroke:none;fill-rule:nonzero;fill:rgb(0%,0%,0%);fill-opacity:1;" d="M 437.5 187.5 L 453.125 156.25 L 468.75 187.5 Z M 437.5 187.5 "/>
<path style=" stroke:none;fill-rule:nonzero;fill:rgb(0%,0%,0%);fill-opacity:1;" d="M 390.625 218.75 L 406.25 187.5 L 421.875 218.75 Z M 390.625 218.75 "/>
<path style=" stroke:none;fill-rule:nonzero;fill:rgb(0%,0%,0%);fill-opacity:1;" d="M 375 250 L 390.625 218.75 L 406.25 250 Z M 375 250 "/>
<path style=" stroke:none;fill-rule:nonzero;fill:rgb(0%,0%,0%);fill-opacity:1;" d="M 406.25 250 L 421.875 218.75 L 437.5 250 Z M 406.25 250 "/>
<path style=" stroke:none;fill-rule:nonzero;fill:rgb(0%,0%,0%);fill-opacity:1;" d="M 453.125 218.75 L 468.75 187.5 L 484.375 218.75 Z M 453.125 218.75 "/>
<path style=" stroke:none;fill-rule:nonzero;fill:rgb(0%,0%,0%);fill-opacity:1;" d="M 437.5 250 L 453.125 218.75 L 468.75 250 Z M 437.5 250 "/>
<path style=" stroke:none;fill-rule:nonzero;fill:rgb(0%,0%,0%);fill-opacity:1;" d="M 468.75 250 L 484.375 218.75 L 500 250 Z M 468.75 250 "/>
<path style=" stroke:none;fill-rule:nonzero;fill:rgb(0%,0%,0%);fill-opacity:1;" d="M 546.875 156.25 L 562.5 125 L 578.125 156.25 Z M 546.875 156.25 "/>
<path style=" stroke:none;fill-rule:nonzero;fill:rgb(0%,0%,0%);fill-opacity:1;" d="M 531.25 187.5 L 546.875 156.25 L 562.5 187.5 Z M 531.25 187.5 "/>
<path style=" stroke:none;fill-rule:nonzero;fill:rgb(0%,0%,0%);fill-opacity:1;" d="M 562.5 187.5 L 578.125 156.25 L 593.75 187.5 Z M 562.5 187.5 "/>
<path style=" stroke:none;fill-rule:nonzero;fill:rgb(0%,0%,0%);fill-opacity:1;" d="M 515.625 218.75 L 531.25 187.5 L 546.875 218.75 Z M 515.625 218.75 "/>
<path style=" stroke:none;fill-rule:nonzero;fill:rgb(0%,0%,0%);fill-opacity:1;" d="M 500 250 L 515.625 218.75 L 531.25 250 Z M 500 250 "/>
<path style=" stroke:none;fill-rule:nonzero;fill:rgb(0%,0%,0%);fill-opacity:1;" d="M 531.25 250 L 546.875 218.75 L 562.5 250 Z M 531.25 250 "/>
<path style=" stroke:none;fill-rule:nonzero;fill:rgb(0%,0%,0%);fill-opacity:1;" d="M 578.125 218.75 L 593.75 187.5 L 609.375 218.75 Z M 578.125 218.75 "/>
<path style=" stroke:none;fill-rule:nonzero;fill:rgb(0%,0%,0%);fill-opacity:1;" d="M 562.5 250 L 578.125 218.75 L 593.75 250 Z M 562.5 250 "/>
<path style=" stroke:none;fill-rule:nonzero;fill:rgb(0%,0%,0%);fill-opacity:1;" d="M 593.75 250 L 609.375 218.75 L 625 250 Z M 593.75 250 "/>
<path style=" stroke:none;fill-rule:nonzero;fill:rgb(0%,0%,0%);fill-opacity:1;" d="M 359.375 281.25 L 375 250 L 390.625 281.25 Z M 359.375 281.25 "/>
<path style=" stroke:none;fill-rule:nonzero;fill:rgb(0%,0%,0%);fill-opacity:1;" d="M 343.75 312.5 L 359.375 281.25 L 375 312.5 Z M 343.75 312.5 "/>
<path style=" stroke:none;fill-rule:nonzero;fill:rgb(0%,0%,0%);fill-opacity:1;" d="M 375 312.5 L 390.625 281.25 L 406.25 312.5 Z M 375 312.5 "/>
<path style=" stroke:none;fill-rule:nonzero;fill:rgb(0%,0%,0%);fill-opacity:1;" d="M 328.125 343.75 L 343.75 312.5 L 359.375 343.75 Z M 328.125 343.75 "/>
<path style=" stroke:none;fill-rule:nonzero;fill:rgb(0%,0%,0%);fill-opacity:1;" d="M 312.5 375 L 328.125 343.75 L 343.75 375 Z M 312.5 375 "/>
<path style=" stroke:none;fill-rule:nonzero;fill:rgb(0%,0%,0%);fill-opacity:1;" d="M 343.75 375 L 359.375 343.75 L 375 375 Z M 343.75 375 "/>
<path style=" stroke:none;fill-rule:nonzero;fill:rgb(0%,0%,0%);fill-opacity:1;" d="M 390.625 343.75 L 406.25 312.5 L 421.875 343.75 Z M 390.625 343.75 "/>
<path style=" stroke:none;fill-rule:nonzero;fill:rgb(0%,0%,0%);fill-opacity:1;" d="M 375 375 L 390.625 343.75 L 406.25 375 Z M 375 375 "/>
<path style=" stroke:none;fill-rule:nonzero;fill:rgb(0%,0%,0%);fill-opacity:1;" d="M 406.25 375 L 421.875 343.75 L 437.5 375 Z M 406.25 375 "/>
<path style=" stroke:none;fill-rule:nonzero;fill:rgb(0%,0%,0%);fill-opacity:1;" d="M 296.875 406.25 L 312.5 375 L 328.125 406.25 Z M 296.875 406.25 "/>
<path style=" stroke:none;fill-rule:nonzero;fill:rgb(0%,0%,0%);fill-opacity:1;" d="M 281.25 437.5 L 296.875 406.25 L 312.5 437.5 Z M 281.25 437.5 "/>
<path style=" stroke:none;fill-rule:nonzero;fill:rgb(0%,0%,0%);fill-opacity:1;" d="M 312.5 437.5 L 328.125 406.25 L 343.75 437.5 Z M 312.5 437.5 "/>
<path style=" stroke:none;fill-rule:nonzero;fill:rgb(0%,0%,0%);fill-opacity:1;" d="M 265.625 468.75 L 281.25 437.5 L 296.875 468.75 Z M 265.625 468.75 "/>
<path style=" stroke:none;fill-rule:nonzero;fill:rgb(0%,0%,0%);fill-opacity:1;" d="M 250 500 L 265.625 468.75 L 281.25 500 Z M 250 500 "/>
<path style=" stroke:none;fill-rule:nonzero;fill:rgb(0%,0%,0%);fill-opacity:1;" d="M 281.25 500 L 296.875 468.75 L 312.5 500 Z M 281.25 500 "/>
<path style=" stroke:none;fill-rule:nonzero;fill:rgb(0%,0%,0%);fill-opacity:1;" d="M 328.125 468.75 L 343.75 437.5 L 359.375 468.75 Z M 328.125 468.75 "/>
<path style=" stroke:none;fill-rule:nonzero;fill:rgb(0%,0%,0%);fill-opacity:1;" d="M 312.5 500 L 328.125 468.75 L 343.75 500 Z M 312.5 500 "/>
<path style=" stroke:none;fill-rule:nonzero;fill:rgb(0%,0%,0%);fill-opacity:1;" d="M 343.75 500 L 359.375 468.75 L 375 500 Z M 343.75 500 "/>
<path style=" stroke:none;fill-rule:nonzero;fill:rgb(0%,0%,0%);fill-opacity:1;" d="M 421.875 406.25 L 437.5 375 L 453.125 406.25 Z M 421.875 406.25 "/>
<path style=" stroke:none;fill-rule:nonzero;fill:rgb(0%,0%,0%);fill-opacity:1;" d="M 406.25 437.5 L 421.875 406.25 L 437.5 437.5 Z M 406.25 437.5 "/>
<path style=" stroke:none;fill-rule:nonzero;fill:rgb(0%,0%,0%);fill-opacity:1;" d="M 437.5 437.5 L 453.125 406.25 L 468.75 437.5 Z M 437.5 437.5 "/>
<path style=" stroke:none;fill-rule:nonzero;fill:rgb(0%,0%,0%);fill-opacity:1;" d="M 390.625 468.75 L 406.25 437.5 L 421.875 468.75 Z M 390.625 468.75 "/>
<path style=" stroke:none;fill-rule:nonzero;fill:rgb(0%,0%,0%);fill-opacity:1;" d="M 375 500 L 390.625 468.75 L 406.25 500 Z M 375 500 "/>
<path style=" stroke:none;fill-rule:nonzero;fill:rgb(0%,0%,0%);fill-opacity:1;" d="M 406.25 500 L 421.875 468.75 L 437.5 500 Z M 406.25 500 "/>
<path style=" stroke:none;fill-rule:nonzero;fill:rgb(0%,0%,0%);fill-opacity:1;" d="M 453.125 468.75 L 468.75 437.5 L 484.375 468.75 Z M 453.125 468.75 "/>
<path style=" stroke:none;fill-rule:nonzero;fill:rgb(0%,0%,0%);fill-opacity:1;" d="M 437.5 500 L 453.125 468.75 L 468.75 500 Z M 437.5 500 "/>
<path style=" stroke:none;fill-rule:nonzero;fill:rgb(0%,0%,0%);fill-opacity:1;" d="M 468.75 500 L 484.375 468.75 L 500 500 Z M 468.75 500 "/>
<path style=" stroke:none;fill-rule:nonzero;fill:rgb(0%,0%,0%);fill-opacity:1;" d="M 609.375 281.25 L 625 250 L 640.625 281.25 Z M 609.375 281.25 "/>
<path style=" stroke:none;fill-rule:nonzero;fill:rgb(0%,0%,0%);fill-opacity:1;" d="M 593.75 312.5 L 609.375 281.25 L 625 312.5 Z M 593.75 312.5 "/>
<path style=" stroke:none;fill-rule:nonzero;fill:rgb(0%,0%,0%);fill-opacity:1;" d="M 625 312.5 L 640.625 281.25 L 656.25 312.5 Z M 625 312.5 "/>
<path style=" stroke:none;fill-rule:nonzero;fill:rgb(0%,0%,0%);fill-opacity:1;" d="M 578.125 343.75 L 593.75 312.5 L 609.375 343.75 Z M 578.125 343.75 "/>
<path style=" stroke:none;fill-rule:nonzero;fill:rgb(0%,0%,0%);fill-opacity:1;" d="M 562.5 375 L 578.125 343.75 L 593.75 375 Z M 562.5 375 "/>
<path style=" stroke:none;fill-rule:nonzero;fill:rgb(0%,0%,0%);fill-opacity:1;" d="M 593.75 375 L 609.375 343.75 L 625 375 Z M 593.75 375 "/>
<path style=" stroke:none;fill-rule:nonzero;fill:rgb(0%,0%,0%);fill-opacity:1;" d="M 640.625 343.75 L 656.25 312.5 L 671.875 343.75 Z M 640.625 343.75 "/>
<path style=" stroke:none;fill-rule:nonzero;fill:rgb(0%,0%,0%);fill-opacity:1;" d="M 625 375 L 640.625 343.75 L 656.25 375 Z M 625 375 "/>
<path style=" stroke:none;fill-rule:nonzero;fill:rgb(0%,0%,0%);fill-opacity:1;" d="M 656.25 375 L 671.875 343.75 L 687.5 375 Z M 656.25 375 "/>
<path style=" stroke:none;fill-rule:nonzero;fill:rgb(0%,0%,0%);fill-opacity:1;" d="M 546.875 406.25 L 562.5 375 L 578.125 406.25 Z M 546.875 406.25 "/>
<path style=" stroke:none;fill-rule:nonzero;fill:rgb(0%,0%,0%);fill-opacity:1;" d="M 531.25 437.5 L 546.875 406.25 L 562.5 437.5 Z M 531.25 437.5 "/>
<path style=" stroke:none;fill-rule:nonzero;fill:rgb(0%,0%,0%);fill-opacity:1;" d="M 562.5 437.5 L 578.125 406.25 L 593.75 437.5 Z M 562.5 437.5 "/>
<path style=" stroke:none;fill-rule:nonzero;fill:rgb(0%,0%,0%);fill-opacity:1;" d="M 515.625 468.75 L 531.25 437.5 L 546.875 468.75 Z M 515.625 468.75 "/>
<path style=" stroke:none;fill-rule:nonzero;fill:rgb(0%,0%,0%);fill-opacity:1;" d="M 500 500 L 515.625 468.75 L 531.25 500 Z M 500 500 "/>
<path style=" stroke:none;fill-rule:nonzero;fill:rgb(0%,0%,0%);fill-opacity:1;" d="M 531.25 500 L 546.875 468.75 L 562.5 500 Z M 531.25 500 "/>
<path style=" stroke:none;fill-rule:nonzero;fill:rgb(0%,0%,0%);fill-opacity:1;" d="M 578.125 468.75 L 593.75 437.5 L 609.375 468.75 Z M 578.125 468.75 "/>
<path style=" stroke:none;fill-rule:nonzero;fill:rgb(0%,0%,0%);fill-opacity:1;" d="M 562.5 500 L 578.125 468.75 L 593.75 500 Z M 562.5 500 "/>
<path style=" stroke:none;fill-rule:nonzero;fill:rgb(0%,0%,0%);fill-opacity:1;" d="M 593.75 500 L 609.375 468.75 L 625 500 Z M 593.75 500 "/>
<path style=" stroke:none;fill-rule:nonzero;fill:rgb(0%,0%,0%);fill-opacity:1;" d="M 671.875 406.25 L 687.5 375 L 703.125 406.25 Z M 671.875 406.25 "/>
<path style=" stroke:none;fill-rule:nonzero;fill:rgb(0%,0%,0%);fill-opacity:1;" d="M 656.25 437.5 L 671.875 406.25 L 687.5 437.5 Z M 656.25 437.5 "/>
<path style=" stroke:none;fill-rule:nonzero;fill:rgb(0%,0%,0%);fill-opacity:1;" d="M 687.5 437.5 L 703.125 406.25 L 718.75 437.5 Z M 687.5 437.5 "/>
<path style=" stroke:none;fill-rule:nonzero;fill:rgb(0%,0%,0%);fill-opacity:1;" d="M 640.625 468.75 L 656.25 437.5 L 671.875 468.75 Z M 640.625 468.75 "/>
<path style=" stroke:none;fill-rule:nonzero;fill:rgb(0%,0%,0%);fill-opacity:1;" d="M 625 500 L 640.625 468.75 L 656.25 500 Z M 625 500 "/>
<path style=" stroke:none;fill-rule:nonzero;fill:rgb(0%,0%,0%);fill-opacity:1;" d="M 656.25 500 L 671.875 468.75 L 687.5 500 Z M 656.25 500 "/>
<path style=" stroke:none;fill-rule:nonzero;fill:rgb(0%,0%,0%);fill-opacity:1;" d="M 703.125 468.75 L 718.75 437.5 L 734.375 468.75 Z M 703.125 468.75 "/>
<path style=" stroke:none;fill-rule:nonzero;fill:rgb(0%,0%,0%);fill-opacity:1;" d="M 687.5 500 L 703.125 468.75 L 718.75 500 Z M 687.5 500 "/>
<path style=" stroke:none;fill-rule:nonzero;fill:rgb(0%,0%,0%);fill-opacity:1;" d="M 718.75 500 L 734.375 468.75 L 750 500 Z M 718.75 500 "/>
<path style=" stroke:none;fill-rule:nonzero;fill:rgb(0%,0%,0%);fill-opacity:1;" d="M 234.375 531.25 L 250 500 L 265.625 531.25 Z M 234.375 531.25 "/>
<path style=" stroke:none;fill-rule:nonzero;fill:rgb(0%,0%,0%);fill-opacity:1;" d="M 218.75 562.5 L 234.375 531.25 L 250 562.5 Z M 218.75 562.5 "/>
<path style=" stroke:none;fill-rule:nonzero;fill:rgb(0%,0%,0%);fill-opacity:1;" d="M 250 562.5 L 265.625 531.25 L 281.25 562.5 Z M 250 562.5 "/>
<path style=" stroke:none;fill-rule:nonzero;fill:rgb(0%,0%,0%);fill-opacity:1;" d="M 203.125 593.75 L 218.75 562.5 L 234.375 593.75 Z M 203.125 593.75 "/>
<path style=" stroke:none;fill-rule:nonzero;fill:rgb(0%,0%,0%);fill-opacity:1;" d="M 187.5 625 L 203.125 593.75 L 218.75 625 Z M 187.5 625 "/>
<path style=" stroke:none;fill-rule:nonzero;fill:rgb(0%,0%,0%);fill-opacity:1;" d="M 218.75 625 L 234.375 593.75 L 250 625 Z M 218.75 625 "/>
<path style=" stroke:none;fill-rule:nonzero;fill:rgb(0%,0%,0%);fill-opacity:1;" d="M 265.625 593.75 L 281.25 562.5 L 296.875 593.75 Z M 265.625 593.75 "/>
<path style=" stroke:none;fill-rule:nonzero;fill:rgb(0%,0%,0%);fill-opacity:1;" d="M 250 625 L 265.625 593.75 L 281.25 625 Z M 250 625 "/>
<path style=" stroke:none;fill-rule:nonzero;fill:rgb(0%,0%,0%);fill-opacity:1;" d="M 281.25 625 L 296.875 593.75 L 312.5 625 Z M 281.25 625 "/>
<path style=" stroke:none;fill-rule:nonzero;fill:rgb(0%,0%,0%);fill-opacity:1;" d="M 171.875 656.25 L 187.5 625 L 203.125 656.25 Z M 171.875 656.25 "/>
<path style=" stroke:none;fill-rule:nonzero;fill:rgb(0%,0%,0%);fill-opacity:1;" d="M 156.25 687.5 L 171.875 656.25 L 187.5 687.5 Z M 156.25 687.5 "/>
<path style=" stroke:none;fill-rule:nonzero;fill:rgb(0%,0%,0%);fill-opacity:1;" d="M 187.5 687.5 L 203.125 656.25 L 218.75 687.5 Z M 187.5 687.5 "/>
<path style=" stroke:none;fill-rule:nonzero;fill:rgb(0%,0%,0%);fill-opacity:1;" d="M 140.625 718.75 L 156.25 687.5 L 171.875 718.75 Z M 140.625 718.75 "/>
<path style=" stroke:none;fill-rule:nonzero;fill:rgb(0%,0%,0%);fill-opacity:1;" d="M 125 750 L 140.625 718.75 L 156.25 750 Z M 125 750 "/>
<path style=" stroke:none;fill-rule:nonzero;fill:rgb(0%,0%,0%);fill-opacity:1;" d="M 156.25 750 L 171.875 718.75 L 187.5 750 Z M 156.25 750 "/>
<path style=" stroke:none;fill-rule:nonzero;fill:rgb(0%,0%,0%);fill-opacity:1;" d="M 203.125 718.75 L 218.75 687.5 L 234.375 718.75 Z M 203.125 718.75 "/>
<path style=" stroke:none;fill-rule:nonzero;fill:rgb(0%,0%,0%);fill-opacity:1;" d="M 187.5 750 L 203.125 718.75 L 218.75 750 Z M 187.5 750 "/>
<path style=" stroke:none;fill-rule:nonzero;fill:rgb(0%,0%,0%);fill-opacity:1;" d="M 218.75 750 L 234.375 718.75 L 250 750 Z M 218.75 750 "/>
<path style=" stroke:none;fill-rule:nonzero;fill:rgb(0%,0%,0%);fill-opacity:1;" d="M 296.875 656.25 L 312.5 625 L 328.125 656.25 Z M 296.875 656.25 "/>
<path style=" stroke:none;fill-rule:nonzero;fill:rgb(0%,0%,0%);fill-opacity:1;" d="M 281.25 687.5 L 296.875 656.25 L 312.5 687.5 Z M 281.25 687.5 "/>
<path style=" stroke:none;fill-rule:nonzero;fill:rgb(0%,0%,0%);fill-opacity:1;" d="M 312.5 687.5 L 328.125 656.25 L 343.75 687.5 Z M 312.5 687.5 "/>
<path style=" stroke:none;fill-rule:nonzero;fill:rgb(0%,0%,0%);fill-opacity:1;" d="M 265.625 718.75 L 281.25 687.5 L 296.875 718.75 Z M 265.625 718.75 "/>
<path style=" stroke:none;fill-rule:nonzero;fill:rgb(0%,0%,0%);fill-opacity:1;" d="M 250 750 L 265.625 718.75 L 281.25 750 Z M 250 750 "/>
<path style=" stroke:none;fill-rule:nonzero;fill:rgb(0%,0%,0%);fill-opacity:1;" d="M 281.25 750 L 296.875 718.75 L 312.5 750 Z M 281.25 750 "/>
<path style=" stroke:none;fill-rule:nonzero;fill:rgb(0%,0%,0%);fill-opacity:1;" d="M 328.125 718.75 L 343.75 687.5 L 359.375 718.75 Z M 328.125 718.75 "/>
<path style=" stroke:none;fill-rule:nonzero;fill:rgb(0%,0%,0%);fill-opacity:1;" d="M 312.5 750 L 328.125 718.75 L 343.75 750 Z M 312.5 750 "/>
<path style=" stroke:none;fill-rule:nonzero;fill:rgb(0%,0%,0%);fill-opacity:1;" d="M 343.75 750 L 359.375 718.75 L 375 750 Z M 343.75 750 "/>
<path style=" stroke:none;fill-rule:nonzero;fill:rgb(0%,0%,0%);fill-opacity:1;" d="M 109.375 781.25 L 125 750 L 140.625 781.25 Z M 109.375 781.25 "/>
<path style=" stroke:none;fill-rule:nonzero;fill:rgb(0%,0%,0%);fill-opacity:1;" d="M 93.75 812.5 L 109.375 781.25 L 125 812.5 Z M 93.75 812.5 "/>
<path style=" stroke:none;fill-rule:nonzero;fill:rgb(0%,0%,0%);fill-opacity:1;" d="M 125 812.5 L 140.625 781.25 L 156.25 812.5 Z M 125 812.5 "/>
<path style=" stroke:none;fill-rule:nonzero;fill:rgb(0%,0%,0%);fill-opacity:1;" d="M 78.125 843.75 L 93.75 812.5 L 109.375 843.75 Z M 78.125 843.75 "/>
<path style=" stroke:none;fill-rule:nonzero;fill:rgb(0%,0%,0%);fill-opacity:1;" d="M 62.5 875 L 78.125 843.75 L 93.75 875 Z M 62.5 875 "/>
<path style=" stroke:none;fill-rule:nonzero;fill:rgb(0%,0%,0%);fill-opacity:1;" d="M 93.75 875 L 109.375 843.75 L 125 875 Z M 93.75 875 "/>
<path style=" stroke:none;fill-rule:nonzero;fill:rgb(0%,0%,0%);fill-opacity:1;" d="M 140.625 843.75 L 156.25 812.5 L 171.875 843.75 Z M 140.625 843.75 "/>
<path style=" stroke:none;fill-rule:nonzero;fill:rgb(0%,0%,0%);fill-opacity:1;" d="M 125 875 L 140.625 843.75 L 156.25 875 Z M 125 875 "/>
<path style=" stroke:none;fill-rule:nonzero;fill:rgb(0%,0%,0%);fill-opacity:1;" d="M 156.25 875 L 171.875 843.75 L 187.5 875 Z M 156.25 875 "/>
<path style=" stroke:none;fill-rule:nonzero;fill:rgb(0%,0%,0%);fill-opacity:1;" d="M 46.875 906.25 L 62.5 875 L 78.125 906.25 Z M 46.875 906.25 "/>
<path style=" stroke:none;fill-rule:nonzero;fill:rgb(0%,0%,0%);fill-opacity:1;" d="M 31.25 937.5 L 46.875 906.25 L 62.5 937.5 Z M 31.25 937.5 "/>
<path style=" stroke:none;fill-rule:nonzero;fill:rgb(0%,0%,0%);fill-opacity:1;" d="M 62.5 937.5 L 78.125 906.25 L 93.75 937.5 Z M 62.5 937.5 "/>
<path style=" stroke:none;fill-rule:nonzero;fill:rgb(0%,0%,0%);fill-opacity:1;" d="M 15.625 968.75 L 31.25 937.5 L 46.875 968.75 Z M 15.625 968.75 "/>
<path style=" stroke:none;fill-rule:nonzero;fill:rgb(0%,0%,0%);fill-opacity:1;" d="M 0 1000 L 15.625 968.75 L 31.25 1000 Z M 0 1000 "/>
<path style=" stroke:none;fill-rule:nonzero;fill:rgb(0%,0%,0%);fill-opacity:1;" d="M 31.25 1000 L 46.875 968.75 L 62.5 1000 Z M 31.25 1000 "/>
<path style=" stroke:none;fill-rule:nonzero;fill:rgb(0%,0%,0%);fill-opacity:1;" d="M 78.125 968.75 L 93.75 937.5 L 109.375 968.75 Z M 78.125 968.75 "/>
<path style=" stroke:none;fill-rule:nonzero;fill:rgb(0%,0%,0%);fill-opacity:1;" d="M 62.5 1000 L 78.125 968.75 L 93.75 1000 Z M 62.5 1000 "/>
<path style=" stroke:none;fill-rule:nonzero;fill:rgb(0%,0%,0%);fill-opacity:1;" d="M 93.75 1000 L 109.375 968.75 L 125 1000 Z M 93.75 1000 "/>
<path style=" stroke:none;fill-rule:nonzero;fill:rgb(0%,0%,0%);fill-opacity:1;" d="M 171.875 906.25 L 187.5 875 L 203.125 906.25 Z M 171.875 906.25 "/>
<path style=" stroke:none;fill-rule:nonzero;fill:rgb(0%,0%,0%);fill-opacity:1;" d="M 156.25 937.5 L 171.875 906.25 L 187.5 937.5 Z M 156.25 937.5 "/>
<path style=" stroke:none;fill-rule:nonzero;fill:rgb(0%,0%,0%);fill-opacity:1;" d="M 187.5 937.5 L 203.125 906.25 L 218.75 937.5 Z M 187.5 937.5 "/>
<path style=" stroke:none;fill-rule:nonzero;fill:rgb(0%,0%,0%);fill-opacity:1;" d="M 140.625 968.75 L 156.25 937.5 L 171.875 968.75 Z M 140.625 968.75 "/>
<path style=" stroke:none;fill-rule:nonzero;fill:rgb(0%,0%,0%);fill-opacity:1;" d="M 125 1000 L 140.625 968.75 L 156.25 1000 Z M 125 1000 "/>
<path style=" stroke:none;fill-rule:nonzero;fill:rgb(0%,0%,0%);fill-opacity:1;" d="M 156.25 1000 L 171.875 968.75 L 187.5 1000 Z M 156.25 1000 "/>
<path style=" stroke:none;fill-rule:nonzero;fill:rgb(0%,0%,0%);fill-opacity:1;" d="M 203.125 968.75 L 218.75 937.5 L 234.375 968.75 Z M 203.125 968.75 "/>
<path style=" stroke:none;fill-rule:nonzero;fill:rgb(0%,0%,0%);fill-opacity:1;" d="M 187.5 1000 L 203.125 968.75 L 218.75 1000 Z M 187.5 1000 "/>
<path style=" stroke:none;fill-rule:nonzero;fill:rgb(0%,0%,0%);fill-opacity:1;" d="M 218.75 1000 L 234.375 968.75 L 250 1000 Z M 218.75 1000 "/>
<path style=" stroke:none;fill-rule:nonzero;fill:rgb(0%,0%,0%);fill-opacity:1;" d="M 359.375 781.25 L 375 750 L 390.625 781.25 Z M 359.375 781.25 "/>
<path style=" stroke:none;fill-rule:nonzero;fill:rgb(0%,0%,0%);fill-opacity:1;" d="M 343.75 812.5 L 359.375 781.25 L 375 812.5 Z M 343.75 812.5 "/>
<path style=" stroke:none;fill-rule:nonzero;fill:rgb(0%,0%,0%);fill-opacity:1;" d="M 375 812.5 L 390.625 781.25 L 406.25 812.5 Z M 375 812.5 "/>
<path style=" stroke:none;fill-rule:nonzero;fill:rgb(0%,0%,0%);fill-opacity:1;" d="M 328.125 843.75 L 343.75 812.5 L 359.375 843.75 Z M 328.125 843.75 "/>
<path style=" stroke:none;fill-rule:nonzero;fill:rgb(0%,0%,0%);fill-opacity:1;" d="M 312.5 875 L 328.125 843.75 L 343.75 875 Z M 312.5 875 "/>
<path style=" stroke:none;fill-rule:nonzero;fill:rgb(0%,0%,0%);fill-opacity:1;" d="M 343.75 875 L 359.375 843.75 L 375 875 Z M 343.75 875 "/>
<path style=" stroke:none;fill-rule:nonzero;fill:rgb(0%,0%,0%);fill-opacity:1;" d="M 390.625 843.75 L 406.25 812.5 L 421.875 843.75 Z M 390.625 843.75 "/>
<path style=" stroke:none;fill-rule:nonzero;fill:rgb(0%,0%,0%);fill-opacity:1;" d="M 375 875 L 390.625 843.75 L 406.25 875 Z M 375 875 "/>
<path style=" stroke:none;fill-rule:nonzero;fill:rgb(0%,0%,0%);fill-opacity:1;" d="M 406.25 875 L 421.875 843.75 L 437.5 875 Z M 406.25 875 "/>
<path style=" stroke:none;fill-rule:nonzero;fill:rgb(0%,0%,0%);fill-opacity:1;" d="M 296.875 906.25 L 312.5 875 L 328.125 906.25 Z M 296.875 906.25 "/>
<path style=" stroke:none;fill-rule:nonzero;fill:rgb(0%,0%,0%);fill-opacity:1;" d="M 281.25 937.5 L 296.875 906.25 L 312.5 937.5 Z M 281.25 937.5 "/>
<path style=" stroke:none;fill-rule:nonzero;fill:rgb(0%,0%,0%);fill-opacity:1;" d="M 312.5 937.5 L 328.125 906.25 L 343.75 937.5 Z M 312.5 937.5 "/>
<path style=" stroke:none;fill-rule:nonzero;fill:rgb(0%,0%,0%);fill-opacity:1;" d="M 265.625 968.75 L 281.25 937.5 L 296.875 968.75 Z M 265.625 968.75 "/>
<path style=" stroke:none;fill-rule:nonzero;fill:rgb(0%,0%,0%);fill-opacity:1;" d="M 250 1000 L 265.625 968.75 L 281.25 1000 Z M 250 1000 "/>
<path style=" stroke:none;fill-rule:nonzero;fill:rgb(0%,0%,0%);fill-opacity:1;" d="M 281.25 1000 L 296.875 968.75 L 312.5 1000 Z M 281.25 1000 "/>
<path style=" stroke:none;fill-rule:nonzero;fill:rgb(0%,0%,0%);fill-opacity:1;" d="M 328.125 968.75 L 343.75 937.5 L 359.375 968.75 Z M 328.125 968.75 "/>
<path style=" stroke:none;fill-rule:nonzero;fill:rgb(0%,0%,0%);fill-opacity:1;" d="M 312.5 1000 L 328.125 968.75 L 343.75 1000 Z M 312.5 1000 "/>
<path style=" stroke:none;fill-rule:nonzero;fill:rgb(0%,0%,0%);fill-opacity:1;" d="M 343.75 1000 L 359.375 968.75 L 375 1000 Z M 343.75 1000 "/>
<path style=" stroke:none;fill-rule:nonzero;fill:rgb(0%,0%,0%);fill-opacity:1;" d="M 421.875 906.25 L 437.5 875 L 453.125 906.25 Z M 421.875 906.25 "/>
<path style=" stroke:none;fill-rule:nonzero;fill:rgb(0%,0%,0%);fill-opacity:1;" d="M 406.25 937.5 L 421.875 906.25 L 437.5 937.5 Z M 406.25 937.5 "/>
<path style=" stroke:none;fill-rule:nonzero;fill:rgb(0%,0%,0%);fill-opacity:1;" d="M 437.5 937.5 L 453.125 906.25 L 468.75 937.5 Z M 437.5 937.5 "/>
<path style=" stroke:none;fill-rule:nonzero;fill:rgb(0%,0%,0%);fill-opacity:1;" d="M 390.625 968.75 L 406.25 937.5 L 421.875 968.75 Z M 390.625 968.75 "/>
<path style=" stroke:none;fill-rule:nonzero;fill:rgb(0%,0%,0%);fill-opacity:1;" d="M 375 1000 L 390.625 968.75 L 406.25 1000 Z M 375 1000 "/>
<path style=" stroke:none;fill-rule:nonzero;fill:rgb(0%,0%,0%);fill-opacity:1;" d="M 406.25 1000 L 421.875 968.75 L 437.5 1000 Z M 406.25 1000 "/>
<path style=" stroke:none;fill-rule:nonzero;fill:rgb(0%,0%,0%);fill-opacity:1;" d="M 453.125 968.75 L 468.75 937.5 L 484.375 968.75 Z M 453.125 968.75 "/>
<path style=" stroke:none;fill-rule:nonzero;fill:rgb(0%,0%,0%);fill-opacity:1;" d="M 437.5 1000 L 453.125 968.75 L 468.75 1000 Z M 437.5 1000 "/>
<path style=" stroke:none;fill-rule:nonzero;fill:rgb(0%,0%,0%);fill-opacity:1;" d="M 468.75 1000 L 484.375 968.75 L 500 1000 Z M 468.75 1000 "/>
<path style=" stroke:none;fill-rule:nonzero;fill:rgb(0%,0%,0%);fill-opacity:1;" d="M 734.375 531.25 L 750 500 L 765.625 531.25 Z M 734.375 531.25 "/>
<path style=" stroke:none;fill-rule:nonzero;fill:rgb(0%,0%,0%);fill-opacity:1;" d="M 718.75 562.5 L 734.375 531.25 L 750 562.5 Z M 718.75 562.5 "/>
<path style=" stroke:none;fill-rule:nonzero;fill:rgb(0%,0%,0%);fill-opacity:1;" d="M 750 562.5 L 765.625 531.25 L 781.25 562.5 Z M 750 562.5 "/>
<path style=" stroke:none;fill-rule:nonzero;fill:rgb(0%,0%,0%);fill-opacity:1;" d="M 703.125 593.75 L 718.75 562.5 L 734.375 593.75 Z M 703.125 593.75 "/>
<path style=" stroke:none;fill-rule:nonzero;fill:rgb(0%,0%,0%);fill-opacity:1;" d="M 687.5 625 L 703.125 593.75 L 718.75 625 Z M 687.5 625 "/>
<path style=" stroke:none;fill-rule:nonzero;fill:rgb(0%,0%,0%);fill-opacity:1;" d="M 718.75 625 L 734.375 593.75 L 750 625 Z M 718.75 625 "/>
<path style=" stroke:none;fill-rule:nonzero;fill:rgb(0%,0%,0%);fill-opacity:1;" d="M 765.625 593.75 L 781.25 562.5 L 796.875 593.75 Z M 765.625 593.75 "/>
<path style=" stroke:none;fill-rule:nonzero;fill:rgb(0%,0%,0%);fill-opacity:1;" d="M 750 625 L 765.625 593.75 L 781.25 625 Z M 750 625 "/>
<path style=" stroke:none;fill-rule:nonzero;fill:rgb(0%,0%,0%);fill-opacity:1;" d="M 781.25 625 L 796.875 593.75 L 812.5 625 Z M 781.25 625 "/>
<path style=" stroke:none;fill-rule:nonzero;fill:rgb(0%,0%,0%);fill-opacity:1;" d="M 671.875 656.25 L 687.5 625 L 703.125 656.25 Z M 671.875 656.25 "/>
<path style=" stroke:none;fill-rule:nonzero;fill:rgb(0%,0%,0%);fill-opacity:1;" d="M 656.25 687.5 L 671.875 656.25 L 687.5 687.5 Z M 656.25 687.5 "/>
<path style=" stroke:none;fill-rule:nonzero;fill:rgb(0%,0%,0%);fill-opacity:1;" d="M 687.5 687.5 L 703.125 656.25 L 718.75 687.5 Z M 687.5 687.5 "/>
<path style=" stroke:none;fill-rule:nonzero;fill:rgb(0%,0%,0%);fill-opacity:1;" d="M 640.625 718.75 L 656.25 687.5 L 671.875 718.75 Z M 640.625 718.75 "/>
<path style=" stroke:none;fill-rule:nonzero;fill:rgb(0%,0%,0%);fill-opacity:1;" d="M 625 750 L 640.625 718.75 L 656.25 750 Z M 625 750 "/>
<path style=" stroke:none;fill-rule:nonzero;fill:rgb(0%,0%,0%);fill-opacity:1;" d="M 656.25 750 L 671.875 718.75 L 687.5 750 Z M 656.25 750 "/>
<path style=" stroke:none;fill-rule:nonzero;fill:rgb(0%,0%,0%);fill-opacity:1;" d="M 703.125 718.75 L 718.75 687.5 L 734.375 718.75 Z M 703.125 718.75 "/>
<path style=" stroke:none;fill-rule:nonzero;fill:rgb(0%,0%,0%);fill-opacity:1;" d="M 687.5 750 L 703.125 718.75 L 718.75 750 Z M 687.5 750 "/>
<path style=" stroke:none;fill-rule:nonzero;fill:rgb(0%,0%,0%);fill-opacity:1;" d="M 718.75 750 L 734.375 718.75 L 750 750 Z M 718.75 750 "/>
<path style=" stroke:none;fill-rule:nonzero;fill:rgb(0%,0%,0%);fill-opacity:1;" d="M 796.875 656.25 L 812.5 625 L 828.125 656.25 Z M 796.875 656.25 "/>
<path style=" stroke:none;fill-rule:nonzero;fill:rgb(0%,0%,0%);fill-opacity:1;" d="M 781.25 687.5 L 796.875 656.25 L 812.5 687.5 Z M 781.25 687.5 "/>
<path style=" stroke:none;fill-rule:nonzero;fill:rgb(0%,0%,0%);fill-opacity:1;" d="M 812.5 687.5 L 828.125 656.25 L 843.75 687.5 Z M 812.5 687.5 "/>
<path style=" stroke:none;fill-rule:nonzero;fill:rgb(0%,0%,0%);fill-opacity:1;" d="M 765.625 718.75 L 781.25 687.5 L 796.875 718.75 Z M 765.625 718.75 "/>
<path style=" stroke:none;fill-rule:nonzero;fill:rgb(0%,0%,0%);fill-opacity:1;" d="M 750 750 L 765.625 718.75 L 781.25 750 Z M 750 750 "/>
<path style=" stroke:none;fill-rule:nonzero;fill:rgb(0%,0%,0%);fill-opacity:1;" d="M 781.25 750 L 796.875 718.75 L 812.5 750 Z M 781.25 750 "/>
<path style=" stroke:none;fill-rule:nonzero;fill:rgb(0%,0%,0%);fill-opacity:1;" d="M 828.125 718.75 L 843.75 687.5 L 859.375 718.75 Z M 828.125 718.75 "/>
<path style=" stroke:none;fill-rule:nonzero;fill:rgb(0%,0%,0%);fill-opacity:1;" d="M 812.5 750 L 828.125 718.75 L 843.75 750 Z M 812.5 750 "/>
<path style=" stroke:none;fill-rule:nonzero;fill:rgb(0%,0%,0%);fill-opacity:1;" d="M 843.75 750 L 859.375 718.75 L 875 750 Z M 843.75 750 "/>
<path style=" stroke:none;fill-rule:nonzero;fill:rgb(0%,0%,0%);fill-opacity:1;" d="M 609.375 781.25 L 625 750 L 640.625 781.25 Z M 609.375 781.25 "/>
<path style=" stroke:none;fill-rule:nonzero;fill:rgb(0%,0%,0%);fill-opacity:1;" d="M 593.75 812.5 L 609.375 781.25 L 625 812.5 Z M 593.75 812.5 "/>
<path style=" stroke:none;fill-rule:nonzero;fill:rgb(0%,0%,0%);fill-opacity:1;" d="M 625 812.5 L 640.625 781.25 L 656.25 812.5 Z M 625 812.5 "/>
<path style=" stroke:none;fill-rule:nonzero;fill:rgb(0%,0%,0%);fill-opacity:1;" d="M 578.125 843.75 L 593.75 812.5 L 609.375 843.75 Z M 578.125 843.75 "/>
<path style=" stroke:none;fill-rule:nonzero;fill:rgb(0%,0%,0%);fill-opacity:1;" d="M 562.5 875 L 578.125 843.75 L 593.75 875 Z M 562.5 875 "/>
<path style=" stroke:none;fill-rule:nonzero;fill:rgb(0%,0%,0%);fill-opacity:1;" d="M 593.75 875 L 609.375 843.75 L 625 875 Z M 593.75 875 "/>
<path style=" stroke:none;fill-rule:nonzero;fill:rgb(0%,0%,0%);fill-opacity:1;" d="M 640.625 843.75 L 656.25 812.5 L 671.875 843.75 Z M 640.625 843.75 "/>
<path style=" stroke:none;fill-rule:nonzero;fill:rgb(0%,0%,0%);fill-opacity:1;" d="M 625 875 L 640.625 843.75 L 656.25 875 Z M 625 875 "/>
<path style=" stroke:none;fill-rule:nonzero;fill:rgb(0%,0%,0%);fill-opacity:1;" d="M 656.25 875 L 671.875 843.75 L 687.5 875 Z M 656.25 875 "/>
<path style=" stroke:none;fill-rule:nonzero;fill:rgb(0%,0%,0%);fill-opacity:1;" d="M 546.875 906.25 L 562.5 875 L 578.125 906.25 Z M 546.875 906.25 "/>
<path style=" stroke:none;fill-rule:nonzero;fill:rgb(0%,0%,0%);fill-opacity:1;" d="M 531.25 937.5 L 546.875 906.25 L 562.5 937.5 Z M 531.25 937.5 "/>
<path style=" stroke:none;fill-rule:nonzero;fill:rgb(0%,0%,0%);fill-opacity:1;" d="M 562.5 937.5 L 578.125 906.25 L 593.75 937.5 Z M 562.5 937.5 "/>
<path style=" stroke:none;fill-rule:nonzero;fill:rgb(0%,0%,0%);fill-opacity:1;" d="M 515.625 968.75 L 531.25 937.5 L 546.875 968.75 Z M 515.625 968.75 "/>
<path style=" stroke:none;fill-rule:nonzero;fill:rgb(0%,0%,0%);fill-opacity:1;" d="M 500 1000 L 515.625 968.75 L 531.25 1000 Z M 500 1000 "/>
<path style=" stroke:none;fill-rule:nonzero;fill:rgb(0%,0%,0%);fill-opacity:1;" d="M 531.25 1000 L 546.875 968.75 L 562.5 1000 Z M 531.25 1000 "/>
<path style=" stroke:none;fill-rule:nonzero;fill:rgb(0%,0%,0%);fill-opacity:1;" d="M 578.125 968.75 L 593.75 937.5 L 609.375 968.75 Z M 578.125 968.75 "/>
<path style=" stroke:none;fill-rule:nonzero;fill:rgb(0%,0%,0%);fill-opacity:1;" d="M 562.5 1000 L 578.125 968.75 L 593.75 1000 Z M 562.5 1000 "/>
<path style=" stroke:none;fill-rule:nonzero;fill:rgb(0%,0%,0%);fill-opacity:1;" d="M 593.75 1000 L 609.375 968.75 L 625 1000 Z M 593.75 1000 "/>
<path style=" stroke:none;fill-rule:nonzero;fill:rgb(0%,0%,0%);fill-opacity:1;" d="M 671.875 906.25 L 687.5 875 L 703.125 906.25 Z M 671.875 906.25 "/>
<path style=" stroke:none;fill-rule:nonzero;fill:rgb(0%,0%,0%);fill-opacity:1;" d="M 656.25 937.5 L 671.875 906.25 L 687.5 937.5 Z M 656.25 937.5 "/>
<path style=" stroke:none;fill-rule:nonzero;fill:rgb(0%,0%,0%);fill-opacity:1;" d="M 687.5 937.5 L 703.125 906.25 L 718.75 937.5 Z M 687.5 937.5 "/>
<path style=" stroke:none;fill-rule:nonzero;fill:rgb(0%,0%,0%);fill-opacity:1;" d="M 640.625 968.75 L 656.25 937.5 L 671.875 968.75 Z M 640.625 968.75 "/>
<path style=" stroke:none;fill-rule:nonzero;fill:rgb(0%,0%,0%);fill-opacity:1;" d="M 625 1000 L 640.625 968.75 L 656.25 1000 Z M 625 1000 "/>
<path style=" stroke:none;fill-rule:nonzero;fill:rgb(0%,0%,0%);fill-opacity:1;" d="M 656.25 1000 L 671.875 968.75 L 687.5 1000 Z M 656.25 1000 "/>
<path style=" stroke:none;fill-rule:nonzero;fill:rgb(0%,0%,0%);fill-opacity:1;" d="M 703.125 968.75 L 718.75 937.5 L 734.375 968.75 Z M 703.125 968.75 "/>
<path style=" stroke:none;fill-rule:nonzero;fill:rgb(0%,0%,0%);fill-opacity:1;" d="M 687.5 1000 L 703.125 968.75 L 718.75 1000 Z M 687.5 1000 "/>
<path style=" stroke:none;fill-rule:nonzero;fill:rgb(0%,0%,0%);fill-opacity:1;" d="M 718.75 1000 L 734.375 968.75 L 750 1000 Z M 718.75 1000 "/>
<path style=" stroke:none;fill-rule:nonzero;fill:rgb(0%,0%,0%);fill-opacity:1;" d="M 859.375 781.25 L 875 750 L 890.625 781.25 Z M 859.375 781.25 "/>
<path style=" stroke:none;fill-rule:nonzero;fill:rgb(0%,0%,0%);fill-opacity:1;" d="M 843.75 812.5 L 859.375 781.25 L 875 812.5 Z M 843.75 812.5 "/>
<path style=" stroke:none;fill-rule:nonzero;fill:rgb(0%,0%,0%);fill-opacity:1;" d="M 875 812.5 L 890.625 781.25 L 906.25 812.5 Z M 875 812.5 "/>
<path style=" stroke:none;fill-rule:nonzero;fill:rgb(0%,0%,0%);fill-opacity:1;" d="M 828.125 843.75 L 843.75 812.5 L 859.375 843.75 Z M 828.125 843.75 "/>
<path style=" stroke:none;fill-rule:nonzero;fill:rgb(0%,0%,0%);fill-opacity:1;" d="M 812.5 875 L 828.125 843.75 L 843.75 875 Z M 812.5 875 "/>
<path style=" stroke:none;fill-rule:nonzero;fill:rgb(0%,0%,0%);fill-opacity:1;" d="M 843.75 875 L 859.375 843.75 L 875 875 Z M 843.75 875 "/>
<path style=" stroke:none;fill-rule:nonzero;fill:rgb(0%,0%,0%);fill-opacity:1;" d="M 890.625 843.75 L 906.25 812.5 L 921.875 843.75 Z M 890.625 843.75 "/>
<path style=" stroke:none;fill-rule:nonzero;fill:rgb(0%,0%,0%);fill-opacity:1;" d="M 875 875 L 890.625 843.75 L 906.25 875 Z M 875 875 "/>
<path style=" stroke:none;fill-rule:nonzero;fill:rgb(0%,0%,0%);fill-opacity:1;" d="M 906.25 875 L 921.875 843.75 L 937.5 875 Z M 906.25 875 "/>
<path style=" stroke:none;fill-rule:nonzero;fill:rgb(0%,0%,0%);fill-opacity:1;" d="M 796.875 906.25 L 812.5 875 L 828.125 906.25 Z M 796.875 906.25 "/>
<path style=" stroke:none;fill-rule:nonzero;fill:rgb(0%,0%,0%);fill-opacity:1;" d="M 781.25 937.5 L 796.875 906.25 L 812.5 937.5 Z M 781.25 937.5 "/>
<path style=" stroke:none;fill-rule:nonzero;fill:rgb(0%,0%,0%);fill-opacity:1;" d="M 812.5 937.5 L 828.125 906.25 L 843.75 937.5 Z M 812.5 937.5 "/>
<path style=" stroke:none;fill-rule:nonzero;fill:rgb(0%,0%,0%);fill-opacity:1;" d="M 765.625 968.75 L 781.25 937.5 L 796.875 968.75 Z M 765.625 968.75 "/>
<path style=" stroke:none;fill-rule:nonzero;fill:rgb(0%,0%,0%);fill-opacity:1;" d="M 750 1000 L 765.625 968.75 L 781.25 1000 Z M 750 1000 "/>
<path style=" stroke:none;fill-rule:nonzero;fill:rgb(0%,0%,0%);fill-opacity:1;" d="M 781.25 1000 L 796.875 968.75 L 812.5 1000 Z M 781.25 1000 "/>
<path style=" stroke:none;fill-rule:nonzero;fill:rgb(0%,0%,0%);fill-opacity:1;" d="M 828.125 968.75 L 843.75 937.5 L 859.375 968.75 Z M 828.125 968.75 "/>
<path style=" stroke:none;fill-rule:nonzero;fill:rgb(0%,0%,0%);fill-opacity:1;" d="M 812.5 1000 L 828.125 968.75 L 843.75 1000 Z M 812.5 1000 "/>
<path style=" stroke:none;fill-rule:nonzero;fill:rgb(0%,0%,0%);fill-opacity:1;" d="M 843.75 1000 L 859.375 968.75 L 875 1000 Z M 843.75 1000 "/>
<path style=" stroke:none;fill-rule:nonzero;fill:rgb(0%,0%,0%);fill-opacity:1;" d="M 921.875 906.25 L 937.5 875 L 953.125 906.25 Z M 921.875 906.25 "/>
<path style=" stroke:none;fill-rule:nonzero;fill:rgb(0%,0%,0%);fill-opacity:1;" d="M 906.25 937.5 L 921.875 906.25 L 937.5 937.5 Z M 906.25 937.5 "/>
<path style=" stroke:none;fill-rule:nonzero;fill:rgb(0%,0%,0%);fill-opacity:1;" d="M 937.5 937.5 L 953.125 906.25 L 968.75 937.5 Z M 937.5 937.5 "/>
<path style=" stroke:none;fill-rule:nonzero;fill:rgb(0%,0%,0%);fill-opacity:1;" d="M 890.625 968.75 L 906.25 937.5 L 921.875 968.75 Z M 890.625 968.75 "/>
<path style=" stroke:none;fill-rule:nonzero;fill:rgb(0%,0%,0%);fill-opacity:1;" d="M 875 1000 L 890.625 968.75 L 906.25 1000 Z M 875 1000 "/>
<path style=" stroke:none;fill-rule:nonzero;fill:rgb(0%,0%,0%);fill-opacity:1;" d="M 906.25 1000 L 921.875 968.75 L 937.5 1000 Z M 906.25 1000 "/>
<path style=" stroke:none;fill-rule:nonzero;fill:rgb(0%,0%,0%);fill-opacity:1;" d="M 953.125 968.75 L 968.75 937.5 L 984.375 968.75 Z M 953.125 968.75 "/>
<path style=" stroke:none;fill-rule:nonzero;fill:rgb(0%,0%,0%);fill-opacity:1;" d="M 937.5 1000 L 953.125 968.75 L 968.75 1000 Z M 937.5 1000 "/>
<path style=" stroke:none;fill-rule:nonzero;fill:rgb(0%,0%,0%);fill-opacity:1;" d="M 968.75 1000 L 984.375 968.75 L 1000 1000 Z M 968.75 1000 "/>
</g>
</svg>
